<svg width="256" height="256" viewBox="0 0 256 256" fill="none" xmlns="http://www.w3.org/2000/svg">
<g filter="url(#filter0_f_1_2)">
<g filter="url(#filter1_d_1_2)">
<path d="M125.486 194.078L70.98 161.76C70.3725 161.4 70 160.746 70 160.04V153.316C70 152.611 69.6288 151.958 69.023 151.598L52.023 141.479C50.6898 140.685 49 141.646 49 143.197V171.109C49 171.778 49.3342 172.402 49.8906 172.773L50.5 173.179L127.483 218.086C128.111 218.452 128.887 218.449 129.512 218.078L176.5 190.179L189.604 182.399C190.909 181.624 190.909 179.735 189.604 178.96L176.5 171.179L71.9746 108.761C71.3702 108.4 71 107.748 71 107.044V102.302C71 101.605 70.6367 100.958 70.0412 100.595L53.4872 90.5008C52.1661 89.6953 50.47 90.6306 50.4462 92.1776L50.0179 120.014C50.0068 120.734 50.3839 121.405 51.0052 121.769L147.842 178.619C149.091 179.352 149.17 181.129 147.992 181.971L147 182.679L127.517 194.084C126.889 194.451 126.112 194.449 125.486 194.078Z" fill="white" shape-rendering="crispEdges"/>
<path d="M125.486 194.078L70.98 161.76C70.3725 161.4 70 160.746 70 160.04V153.316C70 152.611 69.6288 151.958 69.023 151.598L52.023 141.479C50.6898 140.685 49 141.646 49 143.197V171.109C49 171.778 49.3342 172.402 49.8906 172.773L50.5 173.179L127.483 218.086C128.111 218.452 128.887 218.449 129.512 218.078L176.5 190.179L189.604 182.399C190.909 181.624 190.909 179.735 189.604 178.96L176.5 171.179L71.9746 108.761C71.3702 108.4 71 107.748 71 107.044V102.302C71 101.605 70.6367 100.958 70.0412 100.595L53.4872 90.5008C52.1661 89.6953 50.47 90.6306 50.4462 92.1776L50.0179 120.014C50.0068 120.734 50.3839 121.405 51.0052 121.769L147.842 178.619C149.091 179.352 149.17 181.129 147.992 181.971L147 182.679L127.517 194.084C126.889 194.451 126.112 194.449 125.486 194.078Z" stroke="#B5B5B6" stroke-opacity="0.44" stroke-width="0.75" shape-rendering="crispEdges"/>
</g>
<g filter="url(#filter2_d_1_2)">
<path d="M130.513 62.2804L185.02 94.5984C185.628 94.9585 186 95.6124 186 96.3187V103.042C186 103.747 186.371 104.4 186.977 104.761L203.977 114.88C205.31 115.674 207 114.713 207 113.161V85.2498C207 84.5811 206.666 83.9566 206.109 83.5857L205.5 83.1794L128.517 38.2724C127.889 37.9064 127.113 37.9094 126.488 38.2804L79.5 66.1794L66.396 73.9597C65.091 74.7347 65.091 76.6241 66.396 77.3991L79.5 85.1794L184.025 147.597C184.63 147.958 185 148.61 185 149.314V154.056C185 154.754 185.363 155.401 185.959 155.764L202.513 165.858C203.834 166.663 205.53 165.728 205.554 164.181L205.982 136.345C205.993 135.625 205.616 134.954 204.995 134.589L108.158 77.74C106.909 77.0066 106.83 75.2297 108.008 74.3878L109 73.6794L128.483 62.2744C129.111 61.9074 129.888 61.9094 130.513 62.2804Z" fill="white" shape-rendering="crispEdges"/>
<path d="M130.513 62.2804L185.02 94.5984C185.628 94.9585 186 95.6124 186 96.3187V103.042C186 103.747 186.371 104.4 186.977 104.761L203.977 114.88C205.31 115.674 207 114.713 207 113.161V85.2498C207 84.5811 206.666 83.9566 206.109 83.5857L205.5 83.1794L128.517 38.2724C127.889 37.9064 127.113 37.9094 126.488 38.2804L79.5 66.1794L66.396 73.9597C65.091 74.7347 65.091 76.6241 66.396 77.3991L79.5 85.1794L184.025 147.597C184.63 147.958 185 148.61 185 149.314V154.056C185 154.754 185.363 155.401 185.959 155.764L202.513 165.858C203.834 166.663 205.53 165.728 205.554 164.181L205.982 136.345C205.993 135.625 205.616 134.954 204.995 134.589L108.158 77.74C106.909 77.0066 106.83 75.2297 108.008 74.3878L109 73.6794L128.483 62.2744C129.111 61.9074 129.888 61.9094 130.513 62.2804Z" stroke="#B5B5B6" stroke-opacity="0.44" shape-rendering="crispEdges"/>
</g>
</g>
<defs>
<filter id="filter0_f_1_2" x="48.375" y="37.25" width="159.375" height="181.734" filterUnits="userSpaceOnUse" color-interpolation-filters="sRGB">
<feFlood flood-opacity="0" result="BackgroundImageFix"/>
<feBlend mode="normal" in="SourceGraphic" in2="BackgroundImageFix" result="shape"/>
<feGaussianBlur stdDeviation="0.125" result="effect1_foregroundBlur_1_2"/>
</filter>
<filter id="filter1_d_1_2" x="46.625" y="88.8299" width="146.333" height="132.904" filterUnits="userSpaceOnUse" color-interpolation-filters="sRGB">
<feFlood flood-opacity="0" result="BackgroundImageFix"/>
<feColorMatrix in="SourceAlpha" type="matrix" values="0 0 0 0 0 0 0 0 0 0 0 0 0 0 0 0 0 0 127 0" result="hardAlpha"/>
<feOffset dy="1"/>
<feGaussianBlur stdDeviation="1"/>
<feComposite in2="hardAlpha" operator="out"/>
<feColorMatrix type="matrix" values="0 0 0 0 0 0 0 0 0 0 0 0 0 0 0 0 0 0 0.1 0"/>
<feBlend mode="normal" in2="BackgroundImageFix" result="effect1_dropShadow_1_2"/>
<feBlend mode="normal" in="SourceGraphic" in2="effect1_dropShadow_1_2" result="shape"/>
</filter>
<filter id="filter2_d_1_2" x="62.9172" y="36.5" width="146.583" height="133.154" filterUnits="userSpaceOnUse" color-interpolation-filters="sRGB">
<feFlood flood-opacity="0" result="BackgroundImageFix"/>
<feColorMatrix in="SourceAlpha" type="matrix" values="0 0 0 0 0 0 0 0 0 0 0 0 0 0 0 0 0 0 127 0" result="hardAlpha"/>
<feOffset dy="1"/>
<feGaussianBlur stdDeviation="1"/>
<feComposite in2="hardAlpha" operator="out"/>
<feColorMatrix type="matrix" values="0 0 0 0 0 0 0 0 0 0 0 0 0 0 0 0 0 0 0.1 0"/>
<feBlend mode="normal" in2="BackgroundImageFix" result="effect1_dropShadow_1_2"/>
<feBlend mode="normal" in="SourceGraphic" in2="effect1_dropShadow_1_2" result="shape"/>
</filter>
</defs>
</svg>
